<?xml version="1.0" encoding="UTF-8" standalone="no"?>
<!DOCTYPE svg PUBLIC "-//W3C//DTD SVG 1.1//EN" "http://www.w3.org/Graphics/SVG/1.1/DTD/svg11.dtd">
<svg xmlns="http://www.w3.org/2000/svg" version="1.1" viewBox="0.00 0.00 300.00 415.00">
<path fill="#E31E24" d="
  M 187.43 230.55
  L 189.01 242.27
  A 2.12 2.11 12.3 0 0 189.99 243.79
  Q 193.90 246.20 198.17 247.89
  Q 209.37 252.35 220.17 256.92
  Q 227.49 260.02 234.18 264.13
  Q 242.25 269.09 246.46 278.67
  Q 249.66 285.95 251.91 293.87
  Q 256.95 311.50 260.10 332.40
  Q 260.31 333.79 259.00 333.79
  L 35.71 333.81
  A 0.73 0.73 0.0 0 1 34.99 332.94
  Q 35.71 329.12 36.29 325.54
  Q 38.98 308.80 43.39 293.71
  Q 45.80 285.47 49.24 278.22
  Q 53.86 268.46 63.37 263.17
  C 69.70 259.63 76.29 256.59 83.17 254.13
  Q 95.14 249.87 105.93 245.68
  A 4.67 4.66 -6.6 0 0 108.87 241.98
  L 110.42 230.98
  A 0.83 0.83 0.0 0 0 109.66 230.03
  Q 107.60 229.85 105.53 230.05
  Q 90.85 231.43 75.47 235.72
  C 73.00 236.41 71.67 233.74 71.19 231.77
  Q 66.11 210.88 64.04 192.97
  Q 62.90 183.12 63.05 174.59
  Q 63.21 165.71 64.51 156.66
  C 67.93 132.89 78.91 110.40 97.16 94.71
  Q 99.83 92.41 98.95 89.10
  C 98.04 85.65 96.99 80.68 99.71 77.84
  C 108.26 68.90 122.32 64.46 135.04 63.34
  Q 140.11 62.89 145.06 62.40
  Q 150.06 61.91 155.24 62.43
  Q 159.58 62.88 163.95 63.25
  C 176.33 64.30 189.96 67.93 198.78 76.19
  C 201.47 78.71 202.65 82.15 201.57 85.71
  C 200.93 87.84 200.03 92.25 202.22 93.81
  C 203.95 95.05 205.58 96.37 206.99 97.98
  C 219.64 112.32 226.58 130.80 229.82 149.90
  C 230.75 155.41 231.68 161.20 231.91 166.74
  Q 232.45 180.07 231.54 190.26
  Q 230.03 207.08 224.33 230.64
  C 223.58 233.75 223.06 236.47 218.91 235.43
  Q 207.94 232.69 197.35 231.10
  C 194.31 230.65 191.40 230.82 188.40 229.76
  A 0.73 0.73 0.0 0 0 187.43 230.55
  Z
  M 114.31 121.92
  Q 115.94 122.10 117.34 122.11
  Q 148.51 122.39 184.71 122.20
  A 2.31 2.31 0.0 0 0 187.01 119.79
  Q 186.75 113.55 187.62 107.94
  C 188.23 104.00 187.78 100.17 188.53 96.29
  C 189.26 92.51 188.90 88.73 189.19 84.92
  C 189.28 83.74 188.98 82.48 187.85 81.85
  C 178.75 76.76 167.10 73.63 156.24 73.92
  Q 151.19 74.06 145.96 73.89
  C 134.13 73.52 122.84 76.07 112.62 81.57
  C 111.55 82.14 110.71 83.07 110.72 84.35
  Q 110.76 91.05 111.66 97.45
  C 112.17 101.06 111.80 104.70 112.34 108.39
  Q 113.17 114.03 113.02 120.45
  A 1.45 1.45 0.0 0 0 114.31 121.92
  Z
  M 133.91 228.02
  Q 134.43 227.90 134.94 228.07
  C 145.62 231.61 159.35 230.72 167.91 222.91
  Q 173.65 217.66 177.49 211.68
  Q 186.48 197.70 189.13 183.58
  C 190.34 177.18 190.18 170.93 190.20 164.45
  Q 190.21 163.02 188.98 162.24
  C 177.16 154.73 166.98 144.04 159.05 132.09
  Q 158.58 131.37 157.89 131.88
  Q 135.61 148.23 110.22 159.55
  Q 107.99 160.55 105.44 161.04
  Q 104.12 161.30 104.04 162.64
  Q 102.54 189.13 115.89 211.20
  Q 118.57 215.62 122.78 219.74
  C 124.89 221.80 123.94 227.83 123.36 230.34
  C 122.76 232.99 123.16 235.68 122.62 238.27
  Q 121.95 241.46 121.80 244.51
  C 121.40 252.58 116.01 255.61 109.54 258.54
  A 1.33 1.33 0.0 0 0 109.01 260.52
  Q 122.59 279.55 145.98 290.12
  Q 147.61 290.85 149.19 290.26
  Q 164.18 284.60 176.18 274.98
  C 181.44 270.76 185.24 265.96 188.76 260.40
  A 1.22 1.22 0.0 0 0 188.27 258.66
  Q 183.07 256.05 178.49 252.28
  C 174.20 248.74 173.70 242.47 173.94 237.30
  A 1.54 1.53 -10.9 0 0 171.77 235.83
  Q 165.30 238.76 158.46 239.31
  C 149.32 240.04 138.88 236.84 133.61 228.75
  A 0.48 0.48 0.0 0 1 133.91 228.02
  Z"
/>
</svg>
