<svg width="274" height="44" viewBox="0 0 274 44" fill="none" xmlns="http://www.w3.org/2000/svg">
<path d="M84.9184 31.6899C82.8122 31.6899 81.252 31.1821 80.2379 30.1665C79.2238 29.1508 78.7168 27.7445 78.7168 25.9476C78.7168 23.9684 79.4319 22.471 80.862 21.4554C82.3181 20.4397 84.5804 19.9319 87.6487 19.9319H90.4179V17.4709C90.4179 15.8824 90.0929 14.6844 89.4428 13.8771C88.7928 13.0438 87.7267 12.6271 86.2445 12.6271C85.1004 12.6271 84.2163 12.7964 83.5923 13.1349V13.2912C83.8523 13.4474 84.0993 13.6948 84.3333 14.0334C84.5934 14.3459 84.7234 14.7886 84.7234 15.3615C84.7234 16.1168 84.4894 16.7418 84.0213 17.2366C83.5793 17.7053 82.9162 17.9397 82.0321 17.9397C81.278 17.9397 80.654 17.6923 80.1599 17.1975C79.6919 16.7027 79.4579 16.0516 79.4579 15.2443C79.4579 14.6193 79.6269 14.0204 79.9649 13.4474C80.329 12.8485 80.862 12.3276 81.5641 11.8849C82.2661 11.4162 83.1242 11.0516 84.1383 10.7912C85.1784 10.5047 86.3745 10.3615 87.7267 10.3615C90.3269 10.3615 92.2771 10.9604 93.5772 12.1584C94.8773 13.3303 95.5274 14.9839 95.5274 17.1194V28.9164H98.0236V30.8696C97.6336 31.13 97.1136 31.3253 96.4635 31.4555C95.8134 31.6118 95.1504 31.6899 94.4743 31.6899C93.1742 31.6899 92.2381 31.3774 91.666 30.7524C91.094 30.1013 90.808 29.281 90.808 28.2914V28.1742H90.6129C90.4309 28.6169 90.1969 29.0466 89.9109 29.4633C89.6248 29.88 89.2608 30.2576 88.8188 30.5961C88.3767 30.9086 87.8307 31.1691 87.1806 31.3774C86.5565 31.5857 85.8025 31.6899 84.9184 31.6899ZM86.9076 28.5649C87.9477 28.5649 88.7928 28.3175 89.4428 27.8227C90.0929 27.3279 90.4179 26.4945 90.4179 25.3226V22.0413H88.1947C86.6346 22.0413 85.5164 22.3278 84.8404 22.9007C84.1903 23.4476 83.8653 24.2419 83.8653 25.2836V25.9867C83.8653 26.8721 84.1383 27.5232 84.6844 27.9399C85.2564 28.3565 85.9975 28.5649 86.9076 28.5649Z" fill="white"/>
<path d="M103.379 31.6899C102.079 31.6899 101.078 31.3514 100.376 30.6743C99.674 29.9711 99.323 29.1117 99.323 28.0961C99.323 27.2367 99.57 26.5466 100.064 26.0258C100.558 25.5049 101.234 25.2445 102.092 25.2445C102.872 25.2445 103.483 25.4659 103.925 25.9086C104.393 26.3513 104.627 26.9112 104.627 27.5883C104.627 28.031 104.523 28.4216 104.315 28.7602C104.133 29.0727 103.899 29.294 103.613 29.4243V29.5805C103.717 29.6065 103.86 29.6196 104.042 29.6196C104.25 29.6196 104.458 29.5935 104.666 29.5414C104.9 29.4633 105.122 29.3201 105.33 29.1117C105.616 28.8253 105.876 28.4477 106.11 27.9789C106.37 27.4841 106.591 26.768 106.773 25.8304C106.955 24.8929 107.098 23.682 107.202 22.1976C107.306 20.6871 107.358 18.7861 107.358 16.4944V13.174H104.354V10.8302H122.803V13.174H120.307V28.8774H122.803V31.2212H112.779V28.8774H115.197V13.3302H110.01V16.3772C110.01 18.747 109.945 20.7262 109.815 22.3148C109.711 23.8773 109.542 25.1794 109.308 26.2211C109.074 27.2628 108.788 28.0961 108.45 28.7211C108.112 29.3201 107.722 29.8409 107.28 30.2836C106.37 31.2212 105.07 31.6899 103.379 31.6899Z" fill="white"/>
<path d="M125.991 28.8774H128.487V13.174H125.991V10.8302H136.093V13.174H133.596V18.1741H137.614C139.824 18.1741 141.553 18.734 142.801 19.8538C144.075 20.9736 144.712 22.5491 144.712 24.5804C144.712 26.7159 144.075 28.3565 142.801 29.5024C141.527 30.6482 139.785 31.2212 137.575 31.2212H125.991V28.8774ZM135.819 28.7211C138.238 28.7211 139.447 27.6143 139.447 25.4008V23.9945C139.447 21.7809 138.238 20.6741 135.819 20.6741H133.596V28.7211H135.819Z" fill="white"/>
<path d="M156.827 36.69H159.323V29.268H159.128C158.244 30.8826 156.84 31.6899 154.915 31.6899C152.861 31.6899 151.197 30.7915 149.923 28.9946C148.675 27.1977 148.051 24.5414 148.051 21.0257C148.051 17.51 148.675 14.8537 149.923 13.0568C151.197 11.2599 152.861 10.3615 154.915 10.3615C156.84 10.3615 158.244 11.1557 159.128 12.7443H159.323V6.1817L156.827 5.67388V3.72073L164.432 2.1582V12.7443H164.627C165.511 11.1557 166.916 10.3615 168.84 10.3615C170.894 10.3615 172.545 11.2599 173.793 13.0568C175.067 14.8537 175.704 17.51 175.704 21.0257C175.704 24.5414 175.067 27.1977 173.793 28.9946C172.545 30.7915 170.894 31.6899 168.84 31.6899C166.916 31.6899 165.511 30.8826 164.627 29.268H164.471V36.69H166.968V39.0338H156.827V36.69ZM156.476 28.9946C157.386 28.9946 158.101 28.7472 158.621 28.2524C159.141 27.7315 159.401 26.8851 159.401 25.7133V16.3381C159.401 15.1662 159.141 14.3329 158.621 13.8381C158.101 13.3172 157.386 13.0568 156.476 13.0568C155.436 13.0568 154.629 13.4735 154.057 14.3068C153.485 15.1402 153.199 16.4162 153.199 18.135V23.9164C153.199 25.6351 153.485 26.9112 154.057 27.7445C154.629 28.5779 155.436 28.9946 156.476 28.9946ZM167.28 28.9946C168.32 28.9946 169.126 28.5779 169.698 27.7445C170.27 26.9112 170.556 25.6351 170.556 23.9164V18.135C170.556 16.4162 170.27 15.1402 169.698 14.3068C169.126 13.4735 168.32 13.0568 167.28 13.0568C166.37 13.0568 165.655 13.3172 165.134 13.8381C164.614 14.3329 164.354 15.1662 164.354 16.3381V25.7133C164.354 26.8851 164.614 27.7315 165.134 28.2524C165.655 28.7472 166.37 28.9946 167.28 28.9946Z" fill="white"/>
<path d="M185.399 31.6899C183.293 31.6899 181.732 31.1821 180.718 30.1665C179.704 29.1508 179.197 27.7445 179.197 25.9476C179.197 23.9684 179.912 22.471 181.342 21.4554C182.798 20.4397 185.061 19.9319 188.129 19.9319H190.898V17.4709C190.898 15.8824 190.573 14.6844 189.923 13.8771C189.273 13.0438 188.207 12.6271 186.725 12.6271C185.581 12.6271 184.697 12.7964 184.073 13.1349V13.2912C184.333 13.4474 184.58 13.6948 184.814 14.0334C185.074 14.3459 185.204 14.7886 185.204 15.3615C185.204 16.1168 184.97 16.7418 184.502 17.2366C184.06 17.7053 183.397 17.9397 182.512 17.9397C181.758 17.9397 181.134 17.6923 180.64 17.1975C180.172 16.7027 179.938 16.0516 179.938 15.2443C179.938 14.6193 180.107 14.0204 180.445 13.4474C180.809 12.8485 181.342 12.3276 182.044 11.8849C182.746 11.4162 183.605 11.0516 184.619 10.7912C185.659 10.5047 186.855 10.3615 188.207 10.3615C190.807 10.3615 192.757 10.9604 194.058 12.1584C195.358 13.3303 196.008 14.9839 196.008 17.1194V28.9164H198.504V30.8696C198.114 31.13 197.594 31.3253 196.944 31.4555C196.294 31.6118 195.631 31.6899 194.955 31.6899C193.655 31.6899 192.718 31.3774 192.146 30.7524C191.574 30.1013 191.288 29.281 191.288 28.2914V28.1742H191.093C190.911 28.6169 190.677 29.0466 190.391 29.4633C190.105 29.88 189.741 30.2576 189.299 30.5961C188.857 30.9086 188.311 31.1691 187.661 31.3774C187.037 31.5857 186.283 31.6899 185.399 31.6899ZM187.388 28.5649C188.428 28.5649 189.273 28.3175 189.923 27.8227C190.573 27.3279 190.898 26.4945 190.898 25.3226V22.0413H188.675C187.115 22.0413 185.997 22.3278 185.321 22.9007C184.671 23.4476 184.346 24.2419 184.346 25.2836V25.9867C184.346 26.8721 184.619 27.5232 185.165 27.9399C185.737 28.3565 186.478 28.5649 187.388 28.5649Z" fill="white"/>
<path d="M201.217 28.8774H203.714V13.174H201.217V10.8302H209.525L214.05 19.9319H214.206L218.73 10.8302H226.999V13.174H224.503V28.8774H226.999V31.2212H216.975V28.8774H219.393V15.3615H219.237L217.911 18.3694L212.919 28.4086L207.926 18.3694L206.6 15.3615H206.444V28.8774H208.862V31.2212H201.217V28.8774Z" fill="white"/>
<path d="M239.916 31.6899C238.355 31.6899 236.964 31.4295 235.742 30.9086C234.546 30.3878 233.532 29.6586 232.7 28.7211C231.868 27.7576 231.231 26.6247 230.789 25.3226C230.373 23.9945 230.165 22.5491 230.165 20.9866C230.165 19.372 230.386 17.9137 230.828 16.6116C231.296 15.2834 231.946 14.1636 232.778 13.2521C233.61 12.3146 234.598 11.5985 235.742 11.1037C236.912 10.6089 238.199 10.3615 239.604 10.3615C241.008 10.3615 242.269 10.5958 243.387 11.0646C244.531 11.5073 245.493 12.1453 246.273 12.9787C247.079 13.812 247.69 14.8146 248.106 15.9865C248.548 17.1324 248.769 18.4215 248.769 19.8538V21.0647H235.664V22.471C235.664 24.346 236.145 25.7914 237.107 26.807C238.095 27.7966 239.383 28.2914 240.969 28.2914C242.425 28.2914 243.595 27.9659 244.479 27.3148C245.363 26.6638 246.013 25.8565 246.429 24.8929L248.34 26.0648C248.106 26.7159 247.755 27.38 247.287 28.057C246.845 28.7081 246.273 29.3071 245.571 29.8539C244.895 30.4008 244.089 30.8435 243.153 31.1821C242.217 31.5206 241.138 31.6899 239.916 31.6899ZM235.664 18.7991H243.465V18.2913C243.465 16.4162 243.127 15.036 242.451 14.1506C241.801 13.2651 240.852 12.8224 239.604 12.8224C238.355 12.8224 237.38 13.2651 236.678 14.1506C236.002 15.01 235.664 16.3772 235.664 18.2522V18.7991Z" fill="white"/>
<path d="M250.325 28.7211H253.172C254.368 27.1846 255.317 25.3096 256.019 23.096C256.721 20.8825 257.072 18.2001 257.072 15.049V13.174H254.069V10.8302H272.518V13.174H270.022V28.7211H274V37.0806H269.905V31.2212H254.42V37.0806H250.325V28.7211ZM264.912 28.7211V13.3302H259.725V15.2053C259.725 18.2001 259.413 20.8434 258.789 23.1351C258.19 25.4007 257.371 27.2628 256.331 28.7211H264.912Z" fill="white"/>
<path d="M0 22C0 33.55 8.78769 44 22.3786 44C31.4392 44 44.5567 38 54.5819 22C44.5567 6.66666 31.4392 0 22.3786 0C8.78769 0 0 10.45 0 22Z" fill="white"/>
<path d="M35.4877 22.5932C35.4877 30.3459 29.1865 36.6308 21.4135 36.6308C13.6406 36.6308 7.33936 30.3459 7.33936 22.5932C7.33936 14.8405 13.6406 8.55566 21.4135 8.55566C29.1865 8.55566 35.4877 14.8405 35.4877 22.5932Z" fill="#E31E24"/>
<path d="M20.0071 23.9644H13.4553V21.2585H20.0071V14.667H22.8053V21.2585H29.3571V23.9644H22.8053V30.5559H20.0071V23.9644Z" fill="white"/>
</svg>
