<svg width="224" height="36" viewBox="0 0 224 36" fill="none" xmlns="http://www.w3.org/2000/svg">
<path d="M69.4225 25.9279C67.7006 25.9279 66.4252 25.5124 65.5961 24.6815C64.7671 23.8505 64.3525 22.6999 64.3525 21.2297C64.3525 19.6104 64.9371 18.3852 66.1063 17.5542C67.2967 16.7232 69.1461 16.3078 71.6545 16.3078H73.9184V14.2942C73.9184 12.9945 73.6527 12.0144 73.1213 11.3538C72.5898 10.672 71.7183 10.3311 70.5066 10.3311C69.5713 10.3311 68.8485 10.4696 68.3383 10.7466V10.8744C68.5509 11.0023 68.7529 11.2047 68.9442 11.4817C69.1567 11.7374 69.263 12.0996 69.263 12.5683C69.263 13.1863 69.0717 13.6976 68.6891 14.1025C68.3277 14.486 67.7856 14.6778 67.0629 14.6778C66.4464 14.6778 65.9362 14.4753 65.5323 14.0705C65.1497 13.6657 64.9584 13.133 64.9584 12.4725C64.9584 11.9611 65.0966 11.471 65.3729 11.0023C65.6705 10.5122 66.1063 10.0861 66.6802 9.72385C67.2542 9.34032 67.9557 9.04202 68.7847 8.82895C69.635 8.59457 70.6129 8.47738 71.7183 8.47738C73.844 8.47738 75.4384 8.96744 76.5012 9.94757C77.5641 10.9064 78.0955 12.2594 78.0955 14.0066V23.6587H80.1363V25.2568C79.8174 25.4698 79.3923 25.6296 78.8608 25.7362C78.3294 25.864 77.7873 25.9279 77.2346 25.9279C76.1717 25.9279 75.4065 25.6722 74.9388 25.1609C74.4711 24.6282 74.2373 23.957 74.2373 23.1473V23.0515H74.0779C73.9291 23.4137 73.7377 23.7653 73.5039 24.1062C73.2701 24.4471 72.9725 24.756 72.6111 25.033C72.2497 25.2887 71.8033 25.5018 71.2719 25.6722C70.7617 25.8427 70.1452 25.9279 69.4225 25.9279ZM71.0487 23.3711C71.899 23.3711 72.5898 23.1687 73.1213 22.7638C73.6527 22.359 73.9184 21.6772 73.9184 20.7183V18.0336H72.1009C70.8255 18.0336 69.9114 18.268 69.3587 18.7368C68.8273 19.1842 68.5615 19.8341 68.5615 20.6864V21.2617C68.5615 21.9861 68.7847 22.5188 69.2311 22.8597C69.6988 23.2006 70.3047 23.3711 71.0487 23.3711Z" fill="#E31E24"/>
<path d="M84.5147 25.9279C83.4518 25.9279 82.6334 25.6509 82.0594 25.097C81.4855 24.5217 81.1985 23.8185 81.1985 22.9875C81.1985 22.2844 81.4004 21.7198 81.8043 21.2936C82.2082 20.8675 82.7609 20.6544 83.4624 20.6544C84.1001 20.6544 84.5997 20.8355 84.9611 21.1977C85.3437 21.56 85.535 22.0181 85.535 22.5721C85.535 22.9343 85.45 23.2539 85.2799 23.5309C85.1311 23.7866 84.9398 23.9677 84.706 24.0742V24.2021C84.791 24.2234 84.9079 24.234 85.0567 24.234C85.2268 24.234 85.3969 24.2127 85.5669 24.1701C85.7582 24.1062 85.9389 23.989 86.109 23.8185C86.3428 23.5841 86.5554 23.2752 86.7467 22.8917C86.9593 22.4868 87.14 21.9009 87.2888 21.1338C87.4376 20.3668 87.5545 19.376 87.6395 18.1615C87.7246 16.9257 87.7671 15.3702 87.7671 13.4952V10.7785H85.3118V8.86091H100.394V10.7785H98.3533V23.6268H100.394V25.5444H92.1993V23.6268H94.1762V10.9064H89.9353V13.3993C89.9353 15.3383 89.8822 16.9576 89.7759 18.2574C89.6909 19.5358 89.5527 20.6011 89.3614 21.4534C89.1701 22.3057 88.9362 22.9875 88.6599 23.4989C88.3835 23.989 88.0647 24.4151 87.7033 24.7773C86.9593 25.5444 85.8964 25.9279 84.5147 25.9279Z" fill="#E31E24"/>
<path d="M103 23.6268H105.04V10.7785H103V8.86091H111.258V10.7785H109.218V14.8695H112.502C114.309 14.8695 115.722 15.3276 116.743 16.2438C117.784 17.16 118.305 18.4491 118.305 20.1111C118.305 21.8583 117.784 23.2006 116.743 24.1381C115.701 25.0756 114.277 25.5444 112.47 25.5444H103V23.6268ZM111.035 23.4989C113.012 23.4989 114.001 22.5934 114.001 20.7823V19.6317C114.001 17.8206 113.012 16.915 111.035 16.915H109.218V23.4989H111.035Z" fill="#E31E24"/>
<path d="M128.209 30.0189H130.25V23.9464H130.09C129.367 25.2674 128.22 25.9279 126.646 25.9279C124.967 25.9279 123.607 25.1928 122.565 23.7226C121.545 22.2525 121.034 20.0791 121.034 17.2027C121.034 14.3262 121.545 12.1529 122.565 10.6827C123.607 9.21247 124.967 8.47738 126.646 8.47738C128.22 8.47738 129.367 9.12724 130.09 10.427H130.25V5.05758L128.209 4.64209V3.04405L134.427 1.76562V10.427H134.586C135.309 9.12724 136.457 8.47738 138.03 8.47738C139.709 8.47738 141.059 9.21247 142.079 10.6827C143.121 12.1529 143.642 14.3262 143.642 17.2027C143.642 20.0791 143.121 22.2525 142.079 23.7226C141.059 25.1928 139.709 25.9279 138.03 25.9279C136.457 25.9279 135.309 25.2674 134.586 23.9464H134.459V30.0189H136.499V31.9366H128.209V30.0189ZM127.922 23.7226C128.666 23.7226 129.251 23.5202 129.676 23.1154C130.101 22.6892 130.313 21.9968 130.313 21.0379V13.3674C130.313 12.4085 130.101 11.7267 129.676 11.3219C129.251 10.8957 128.666 10.6827 127.922 10.6827C127.072 10.6827 126.413 11.0236 125.945 11.7054C125.477 12.3872 125.243 13.4313 125.243 14.8376V19.5677C125.243 20.974 125.477 22.0181 125.945 22.6999C126.413 23.3817 127.072 23.7226 127.922 23.7226ZM136.754 23.7226C137.605 23.7226 138.264 23.3817 138.731 22.6999C139.199 22.0181 139.433 20.974 139.433 19.5677V14.8376C139.433 13.4313 139.199 12.3872 138.731 11.7054C138.264 11.0236 137.605 10.6827 136.754 10.6827C136.01 10.6827 135.426 10.8957 135.001 11.3219C134.576 11.7267 134.363 12.4085 134.363 13.3674V21.0379C134.363 21.9968 134.576 22.6892 135.001 23.1154C135.426 23.5202 136.01 23.7226 136.754 23.7226Z" fill="#E31E24"/>
<path d="M151.567 25.9279C149.845 25.9279 148.57 25.5124 147.741 24.6815C146.912 23.8505 146.497 22.6999 146.497 21.2297C146.497 19.6104 147.082 18.3852 148.251 17.5542C149.441 16.7232 151.291 16.3078 153.799 16.3078H156.063V14.2942C156.063 12.9945 155.797 12.0144 155.266 11.3538C154.734 10.672 153.863 10.3311 152.651 10.3311C151.716 10.3311 150.993 10.4696 150.483 10.7466V10.8744C150.696 11.0023 150.898 11.2047 151.089 11.4817C151.301 11.7374 151.408 12.0996 151.408 12.5683C151.408 13.1863 151.216 13.6976 150.834 14.1025C150.472 14.486 149.93 14.6778 149.208 14.6778C148.591 14.6778 148.081 14.4753 147.677 14.0705C147.294 13.6657 147.103 13.133 147.103 12.4725C147.103 11.9611 147.241 11.471 147.518 11.0023C147.815 10.5122 148.251 10.0861 148.825 9.72385C149.399 9.34032 150.1 9.04202 150.929 8.82895C151.78 8.59457 152.758 8.47738 153.863 8.47738C155.989 8.47738 157.583 8.96744 158.646 9.94757C159.709 10.9064 160.24 12.2594 160.24 14.0066V23.6587H162.281V25.2568C161.962 25.4698 161.537 25.6296 161.005 25.7362C160.474 25.864 159.932 25.9279 159.379 25.9279C158.316 25.9279 157.551 25.6722 157.083 25.1609C156.616 24.6282 156.382 23.957 156.382 23.1473V23.0515H156.223C156.074 23.4137 155.882 23.7653 155.649 24.1062C155.415 24.4471 155.117 24.756 154.756 25.033C154.394 25.2887 153.948 25.5018 153.417 25.6722C152.906 25.8427 152.29 25.9279 151.567 25.9279ZM153.193 23.3711C154.044 23.3711 154.734 23.1687 155.266 22.7638C155.797 22.359 156.063 21.6772 156.063 20.7183V18.0336H154.246C152.97 18.0336 152.056 18.268 151.503 18.7368C150.972 19.1842 150.706 19.8341 150.706 20.6864V21.2617C150.706 21.9861 150.929 22.5188 151.376 22.8597C151.843 23.2006 152.449 23.3711 153.193 23.3711Z" fill="#E31E24"/>
<path d="M164.499 23.6268H166.54V10.7785H164.499V8.86091H171.291L174.99 16.3078H175.117L178.816 8.86091H185.576V10.7785H183.535V23.6268H185.576V25.5444H177.381V23.6268H179.358V12.5683H179.231L178.147 15.0293L174.065 23.2432L169.984 15.0293L168.9 12.5683H168.772V23.6268H170.749V25.5444H164.499V23.6268Z" fill="#E31E24"/>
<path d="M196.136 25.9279C194.86 25.9279 193.723 25.7149 192.724 25.2887C191.746 24.8626 190.917 24.266 190.237 23.4989C189.556 22.7106 189.036 21.7837 188.674 20.7183C188.334 19.6317 188.164 18.4491 188.164 17.1707C188.164 15.8497 188.345 14.6564 188.706 13.5911C189.089 12.5044 189.62 11.5882 190.301 10.8425C190.981 10.0754 191.789 9.48947 192.724 9.08463C193.68 8.67979 194.733 8.47738 195.881 8.47738C197.029 8.47738 198.06 8.66914 198.974 9.05267C199.909 9.41489 200.695 9.93692 201.333 10.6187C201.992 11.3006 202.492 12.1209 202.832 13.0797C203.193 14.0172 203.374 15.0719 203.374 16.2438V17.2346H192.66V18.3852C192.66 19.9193 193.053 21.1019 193.84 21.9328C194.648 22.7425 195.7 23.1473 196.997 23.1473C198.187 23.1473 199.144 22.881 199.866 22.3483C200.589 21.8157 201.121 21.1551 201.461 20.3668L203.023 21.3256C202.832 21.8583 202.545 22.4016 202.162 22.9556C201.801 23.4883 201.333 23.9783 200.759 24.4258C200.207 24.8732 199.548 25.2355 198.782 25.5124C198.017 25.7894 197.135 25.9279 196.136 25.9279ZM192.66 15.3809H199.037V14.9654C199.037 13.4313 198.761 12.302 198.208 11.5776C197.677 10.8531 196.901 10.4909 195.881 10.4909C194.86 10.4909 194.063 10.8531 193.489 11.5776C192.936 12.2807 192.66 13.3993 192.66 14.9334V15.3809Z" fill="#E31E24"/>
<path d="M204.645 23.4989H206.973C207.951 22.2418 208.727 20.7077 209.301 18.8966C209.875 17.0855 210.162 14.8908 210.162 12.3127V10.7785H207.706V8.86091H222.789V10.7785H220.748V23.4989H224V30.3385H220.652V25.5444H207.993V30.3385H204.645V23.4989ZM216.571 23.4989V10.9064H212.33V12.4405C212.33 14.8908 212.075 17.0535 211.565 18.9285C211.076 20.7823 210.406 22.3057 209.556 23.4989H216.571Z" fill="#E31E24"/>
<path d="M0 18C0 27.45 7.18411 36 18.2949 36C25.7021 36 36.4259 31.0909 44.6218 18C36.4259 5.45455 25.7021 0 18.2949 0C7.18411 0 0 8.55 0 18Z" fill="#E31E24"/>
<path d="M29.0118 18.4853C29.0118 24.8284 23.8605 29.9705 17.5059 29.9705C11.1514 29.9705 6 24.8284 6 18.4853C6 12.1421 11.1514 7 17.5059 7C23.8605 7 29.0118 12.1421 29.0118 18.4853Z" fill="white"/>
<path d="M16.6141 18.9135H10.9893V16.6103H16.6141V11H19.0163V16.6103H24.6412V18.9135H19.0163V24.5237H16.6141V18.9135Z" fill="#E31E24"/>
</svg>
